<?xml version="1.0" encoding="UTF-8"?>
<svg id="Layer_1" data-name="Layer 1" xmlns="http://www.w3.org/2000/svg" viewBox="0 0 256 256">
  <defs>
    <style>
      .cls-1 {
        fill: #010101;
      }

      .cls-1, .cls-2, .cls-3 {
        stroke-width: 0px;
      }

      .cls-2 {
        fill: #818181;
      }

      .cls-3 {
        fill: #fff;
      }
    </style>
  </defs>
  <polygon class="cls-3" points="255.41 0 255.41 85.33 170.9 85.33 170.9 170.67 85.45 170.67 85.45 256 0 256 0 0 255.41 0"/>
  <g>
    <polygon class="cls-1" points="256 85.76 256 255.81 85.72 255.81 85.72 170.79 170.86 170.79 170.86 85.76 256 85.76"/>
    <path class="cls-1" d="M185.41,8.79h11.06v28.56h33.92V8.79h11.06v68.87h-11.06v-31.05h-33.92v31.05h-11.06V8.79Z"/>
    <path class="cls-1" d="M65.03,248.05l-1.95-7.72c-1.75,2.46-3.98,4.44-6.69,5.94-3.69,1.99-7.75,2.99-12.18,2.99-9.15,0-16.88-3.11-23.2-9.34-6.62-6.56-9.94-15.35-9.94-26.36,0-9.66,2.66-17.77,7.98-24.33,6.49-8,15.06-12,25.73-12,5.54,0,10.53.91,14.97,2.74,3.38,1.38,6.9,3.56,10.56,6.52l-6.19,7.68c-3.3-2.74-6.22-4.65-8.77-5.73-2.97-1.25-6.36-1.87-10.19-1.87-6.49,0-11.81,2.48-15.96,7.43-4.07,4.84-6.11,11.42-6.11,19.72,0,7.8,1.88,14.07,5.65,18.81,3.88,4.87,9.19,7.31,15.92,7.31,4.71,0,8.81-1.12,12.31-3.36,2.77-1.77,4.67-3.89,5.7-6.35v-8.59h-18.46v-8.76h28.77v35.29h-7.94Z"/>
    <path class="cls-1" d="M159.3,154.97c-6.96,6.23-15.7,9.34-26.23,9.34s-19.3-3.69-25.82-11.08c-5.54-6.28-8.31-14.52-8.31-24.7s2.69-17.85,8.06-24.49c6.4-7.89,14.85-11.83,25.36-11.83,5.99,0,11.32,1.14,16.01,3.4,3.13,1.52,6.4,3.85,9.81,6.97l-6.61,7.6c-4.96-5.76-11.2-8.64-18.71-8.64-6.57,0-11.88,2.49-15.92,7.47-3.99,4.9-5.99,11.46-5.99,19.68,0,6.7,1.58,12.33,4.74,16.9,4.24,6.09,10.09,9.13,17.54,9.13,8.15,0,14.97-2.89,20.45-8.68l5.61,8.93Z"/>
    <g>
      <path class="cls-3" d="M182.45,202.49c-1.59,0-3.02-.38-4.3-1.14-1.28-.76-2.29-1.88-3.04-3.35-.75-1.47-1.12-3.27-1.12-5.4,0-1.59.22-3.01.66-4.24.44-1.24,1.04-2.29,1.82-3.15.78-.87,1.68-1.52,2.69-1.97s2.11-.67,3.29-.67c1.27,0,2.36.26,3.25.77.9.51,1.63,1.08,2.2,1.7l-1.88,2.44c-.45-.45-.93-.83-1.47-1.14-.53-.31-1.2-.47-1.99-.47-.99,0-1.85.26-2.6.79-.75.53-1.33,1.28-1.74,2.27s-.62,2.17-.62,3.56.19,2.6.58,3.59c.39.99.97,1.76,1.75,2.3.78.54,1.74.81,2.89.81.43,0,.84-.06,1.24-.19.4-.13.72-.31.95-.53v-3.79h-3.12v-3.14h6.29v8.67c-.6.64-1.41,1.19-2.41,1.64-1,.45-2.11.67-3.34.67Z"/>
      <path class="cls-3" d="M191.96,202.12v-19.23h6.13c1.26,0,2.38.18,3.38.53,1,.36,1.8.96,2.38,1.82s.88,2.02.88,3.49-.29,2.58-.88,3.49-1.38,1.57-2.38,2c-1,.43-2.13.64-3.38.64h-2.6v7.27h-3.53ZM195.49,191.82h2.29c1.14,0,2.01-.26,2.61-.78.6-.52.89-1.29.89-2.31s-.3-1.76-.89-2.17-1.47-.61-2.61-.61h-2.29v5.86ZM201.55,202.12l-4.1-8.25,2.48-2.39,5.58,10.64h-3.96Z"/>
      <path class="cls-3" d="M205.62,202.12l5.65-19.23h4.17l5.65,19.23h-3.72l-2.5-10.02c-.27-1-.53-2.05-.77-3.13s-.5-2.13-.77-3.15h-.09c-.22,1.04-.46,2.09-.73,3.17-.26,1.07-.52,2.11-.77,3.11l-2.53,10.02h-3.58ZM209.13,197.19v-2.98h8.39v2.98h-8.39Z"/>
      <path class="cls-3" d="M229.94,202.49c-1.11,0-2.15-.21-3.12-.64s-1.82-1.06-2.56-1.91c-.74-.85-1.32-1.89-1.74-3.11-.42-1.23-.63-2.64-.63-4.23s.21-3.01.64-4.24c.43-1.24,1.02-2.29,1.78-3.15s1.63-1.52,2.62-1.97c.99-.45,2.05-.67,3.16-.67s2.13.25,3.02.74c.88.49,1.6,1.07,2.16,1.73l-1.83,2.44c-.45-.48-.93-.87-1.47-1.17s-1.13-.44-1.8-.44c-.89,0-1.69.26-2.4.79-.71.53-1.26,1.28-1.66,2.27s-.6,2.17-.6,3.56.19,2.6.56,3.59.91,1.76,1.6,2.3c.69.54,1.5.81,2.42.81.76,0,1.44-.18,2.04-.53.6-.35,1.12-.81,1.59-1.36l1.88,2.39c-.73.93-1.57,1.64-2.5,2.11s-1.99.71-3.15.71Z"/>
      <path class="cls-3" d="M238.4,202.12v-19.23h10.82v3.22h-7.29v4.44h6.17v3.22h-6.17v5.14h7.56v3.22h-11.09Z"/>
      <path class="cls-3" d="M208.2,226.58c-1.11,0-2.15-.21-3.12-.64s-1.82-1.06-2.56-1.91c-.74-.85-1.32-1.89-1.74-3.11-.42-1.23-.63-2.64-.63-4.23s.21-3.01.64-4.24c.43-1.24,1.02-2.29,1.78-3.15s1.63-1.52,2.62-1.97c.99-.45,2.05-.67,3.16-.67s2.13.25,3.02.74c.88.49,1.6,1.07,2.16,1.73l-1.83,2.44c-.45-.48-.93-.87-1.47-1.17s-1.13-.44-1.8-.44c-.89,0-1.69.26-2.4.79-.71.53-1.26,1.28-1.66,2.27s-.6,2.17-.6,3.56.19,2.6.56,3.59.91,1.76,1.6,2.3c.69.54,1.5.81,2.42.81.76,0,1.44-.18,2.04-.53.6-.35,1.12-.81,1.59-1.36l1.88,2.39c-.73.93-1.57,1.64-2.5,2.11s-1.99.71-3.15.71Z"/>
      <path class="cls-3" d="M216.66,226.22v-19.23h3.53v7.6h6.67v-7.6h3.5v19.23h-3.5v-8.3h-6.67v8.3h-3.53Z"/>
      <path class="cls-3" d="M241.71,226.58c-1.56,0-2.93-.4-4.11-1.21-1.18-.8-2.11-1.96-2.78-3.46-.67-1.5-1-3.3-1-5.4s.33-3.85,1-5.32c.67-1.47,1.59-2.59,2.78-3.37s2.55-1.17,4.11-1.17,2.95.39,4.12,1.18c1.18.79,2.1,1.91,2.77,3.37s1,3.23,1,5.31-.33,3.89-1,5.4c-.67,1.51-1.59,2.66-2.77,3.46-1.18.81-2.55,1.21-4.12,1.21ZM241.71,223.26c.87,0,1.63-.28,2.28-.83s1.14-1.34,1.49-2.35c.35-1.01.52-2.2.52-3.57s-.18-2.54-.52-3.52c-.35-.98-.85-1.73-1.49-2.26s-1.4-.79-2.28-.79-1.63.26-2.28.79c-.64.53-1.14,1.28-1.48,2.26-.34.98-.51,2.15-.51,3.52s.17,2.56.51,3.57c.34,1.01.83,1.8,1.48,2.35.64.55,1.4.83,2.28.83Z"/>
      <path class="cls-2" d="M128.17,250.31v-19.23h3.53v7.6h6.67v-7.6h3.5v19.23h-3.5v-8.3h-6.67v8.3h-3.53Z"/>
      <path class="cls-2" d="M153.22,250.68c-1.56,0-2.93-.4-4.11-1.21-1.18-.8-2.11-1.96-2.78-3.46-.67-1.5-1-3.3-1-5.4s.33-3.85,1-5.32c.67-1.47,1.59-2.59,2.78-3.37s2.55-1.17,4.11-1.17,2.95.39,4.12,1.18c1.18.79,2.1,1.91,2.77,3.37s1,3.23,1,5.31-.33,3.89-1,5.4c-.67,1.51-1.59,2.66-2.77,3.46-1.18.81-2.55,1.21-4.12,1.21ZM153.22,247.35c.87,0,1.63-.28,2.28-.83s1.14-1.34,1.49-2.35c.35-1.01.52-2.2.52-3.57s-.18-2.54-.52-3.52c-.35-.98-.85-1.73-1.49-2.26s-1.4-.79-2.28-.79-1.63.26-2.28.79c-.64.53-1.14,1.28-1.48,2.26-.34.98-.51,2.15-.51,3.52s.17,2.56.51,3.57c.34,1.01.83,1.8,1.48,2.35.64.55,1.4.83,2.28.83Z"/>
      <path class="cls-2" d="M164.57,250.31v-19.23h3.53v16.01h7.18v3.22h-10.7Z"/>
      <path class="cls-2" d="M178.35,250.31v-19.23h4.84c1.81,0,3.36.35,4.66,1.04s2.3,1.74,3,3.14c.71,1.4,1.06,3.18,1.06,5.34s-.35,3.96-1.05,5.4c-.7,1.44-1.68,2.51-2.96,3.23-1.27.72-2.78,1.08-4.53,1.08h-5.03ZM181.88,247.2h1.07c1.11,0,2.07-.22,2.87-.66.8-.44,1.42-1.15,1.85-2.13.43-.98.64-2.24.64-3.8s-.21-2.81-.64-3.75c-.43-.94-1.05-1.63-1.85-2.05-.8-.42-1.76-.64-2.87-.64h-1.07v13.03Z"/>
      <path class="cls-2" d="M195.37,250.31v-19.23h3.53v19.23h-3.53Z"/>
      <path class="cls-2" d="M203.24,250.31v-19.23h3.6l5.13,10.25,1.79,4.15h.12c-.1-1-.2-2.1-.31-3.3-.11-1.19-.17-2.33-.17-3.42v-7.68h3.34v19.23h-3.6l-5.08-10.27-1.79-4.13h-.12c.08,1.04.17,2.14.29,3.3s.17,2.29.17,3.4v7.71h-3.36Z"/>
      <path class="cls-2" d="M228.67,250.68c-1.59,0-3.02-.38-4.3-1.14-1.28-.76-2.29-1.88-3.04-3.35-.75-1.47-1.12-3.27-1.12-5.4,0-1.59.22-3.01.66-4.24.44-1.24,1.04-2.29,1.82-3.15.78-.87,1.68-1.52,2.69-1.97s2.11-.67,3.29-.67c1.27,0,2.36.26,3.25.77.9.51,1.63,1.08,2.2,1.7l-1.88,2.44c-.45-.45-.93-.83-1.47-1.14-.53-.31-1.2-.47-1.99-.47-.99,0-1.85.26-2.6.79-.75.53-1.33,1.28-1.74,2.27s-.62,2.17-.62,3.56.19,2.6.58,3.59c.39.99.97,1.76,1.75,2.3.78.54,1.74.81,2.89.81.43,0,.84-.06,1.24-.19.4-.13.72-.31.95-.53v-3.79h-3.12v-3.14h6.29v8.67c-.6.64-1.41,1.19-2.41,1.64-1,.45-2.11.67-3.34.67Z"/>
      <path class="cls-2" d="M243.45,250.68c-1.18,0-2.33-.24-3.46-.73-1.13-.48-2.12-1.18-2.98-2.08l2.03-2.65c.62.64,1.33,1.15,2.13,1.54.8.39,1.59.58,2.35.58.92,0,1.62-.2,2.1-.6.48-.4.72-.93.72-1.61,0-.48-.12-.87-.35-1.16s-.54-.54-.94-.77c-.4-.22-.86-.45-1.38-.67l-2.34-1.12c-.59-.26-1.16-.61-1.7-1.05-.55-.44-1-1-1.36-1.67-.36-.68-.54-1.48-.54-2.41,0-1.06.26-2,.79-2.83.52-.83,1.25-1.49,2.17-1.98.92-.49,1.97-.74,3.15-.74,1.05,0,2.06.22,3.03.65.97.43,1.81,1.05,2.53,1.84l-1.79,2.39c-.56-.5-1.14-.89-1.74-1.17-.6-.28-1.28-.42-2.03-.42s-1.37.18-1.82.53c-.45.35-.68.85-.68,1.49,0,.45.13.82.38,1.12.25.29.59.55,1,.77s.87.44,1.36.66l2.31,1.01c.72.31,1.34.7,1.87,1.17.53.47.95,1.03,1.24,1.69.29.66.44,1.45.44,2.39,0,1.04-.26,2-.77,2.88-.52.88-1.26,1.59-2.22,2.13-.96.54-2.13.81-3.49.81Z"/>
    </g>
  </g>
  <g>
    <polygon class="cls-1" points="256 85.76 256 255.81 85.72 255.81 85.72 170.79 170.86 170.79 170.86 85.76 256 85.76"/>
    <path class="cls-1" d="M185.41,8.79h11.06v28.56h33.92V8.79h11.06v68.87h-11.06v-31.05h-33.92v31.05h-11.06V8.79Z"/>
    <path class="cls-1" d="M65.03,248.05l-1.95-7.72c-1.75,2.46-3.98,4.44-6.69,5.94-3.69,1.99-7.75,2.99-12.18,2.99-9.15,0-16.88-3.11-23.2-9.34-6.62-6.56-9.94-15.35-9.94-26.36,0-9.66,2.66-17.77,7.98-24.33,6.49-8,15.06-12,25.73-12,5.54,0,10.53.91,14.97,2.74,3.38,1.38,6.9,3.56,10.56,6.52l-6.19,7.68c-3.3-2.74-6.22-4.65-8.77-5.73-2.97-1.25-6.36-1.87-10.19-1.87-6.49,0-11.81,2.48-15.96,7.43-4.07,4.84-6.11,11.42-6.11,19.72,0,7.8,1.88,14.07,5.65,18.81,3.88,4.87,9.19,7.31,15.92,7.31,4.71,0,8.81-1.12,12.31-3.36,2.77-1.77,4.67-3.89,5.7-6.35v-8.59h-18.46v-8.76h28.77v35.29h-7.94Z"/>
    <path class="cls-1" d="M159.3,154.97c-6.96,6.23-15.7,9.34-26.23,9.34s-19.3-3.69-25.82-11.08c-5.54-6.28-8.31-14.52-8.31-24.7s2.69-17.85,8.06-24.49c6.4-7.89,14.85-11.83,25.36-11.83,5.99,0,11.32,1.14,16.01,3.4,3.13,1.52,6.4,3.85,9.81,6.97l-6.61,7.6c-4.96-5.76-11.2-8.64-18.71-8.64-6.57,0-11.88,2.49-15.92,7.47-3.99,4.9-5.99,11.46-5.99,19.68,0,6.7,1.58,12.33,4.74,16.9,4.24,6.09,10.09,9.13,17.54,9.13,8.15,0,14.97-2.89,20.45-8.68l5.61,8.93Z"/>
    <g>
      <path class="cls-3" d="M182.45,202.49c-1.59,0-3.02-.38-4.3-1.14-1.28-.76-2.29-1.88-3.04-3.35-.75-1.47-1.12-3.27-1.12-5.4,0-1.59.22-3.01.66-4.24.44-1.24,1.04-2.29,1.82-3.15.78-.87,1.68-1.52,2.69-1.97s2.11-.67,3.29-.67c1.27,0,2.36.26,3.25.77.9.51,1.63,1.08,2.2,1.7l-1.88,2.44c-.45-.45-.93-.83-1.47-1.14-.53-.31-1.2-.47-1.99-.47-.99,0-1.85.26-2.6.79-.75.53-1.33,1.28-1.74,2.27s-.62,2.17-.62,3.56.19,2.6.58,3.59c.39.99.97,1.76,1.75,2.3.78.54,1.74.81,2.89.81.43,0,.84-.06,1.24-.19.4-.13.72-.31.95-.53v-3.79h-3.12v-3.14h6.29v8.67c-.6.64-1.41,1.19-2.41,1.64-1,.45-2.11.67-3.34.67Z"/>
      <path class="cls-3" d="M191.96,202.12v-19.23h6.13c1.26,0,2.38.18,3.38.53,1,.36,1.8.96,2.38,1.82s.88,2.02.88,3.49-.29,2.58-.88,3.49-1.38,1.57-2.38,2c-1,.43-2.13.64-3.38.64h-2.6v7.27h-3.53ZM195.49,191.82h2.29c1.14,0,2.01-.26,2.61-.78.6-.52.89-1.29.89-2.31s-.3-1.76-.89-2.17-1.47-.61-2.61-.61h-2.29v5.86ZM201.55,202.12l-4.1-8.25,2.48-2.39,5.58,10.64h-3.96Z"/>
      <path class="cls-3" d="M205.62,202.12l5.65-19.23h4.17l5.65,19.23h-3.72l-2.5-10.02c-.27-1-.53-2.05-.77-3.13s-.5-2.13-.77-3.15h-.09c-.22,1.04-.46,2.09-.73,3.17-.26,1.07-.52,2.11-.77,3.11l-2.53,10.02h-3.58ZM209.13,197.19v-2.98h8.39v2.98h-8.39Z"/>
      <path class="cls-3" d="M229.94,202.49c-1.11,0-2.15-.21-3.12-.64s-1.82-1.06-2.56-1.91c-.74-.85-1.32-1.89-1.74-3.11-.42-1.23-.63-2.64-.63-4.23s.21-3.01.64-4.24c.43-1.24,1.02-2.29,1.78-3.15s1.63-1.52,2.62-1.97c.99-.45,2.05-.67,3.16-.67s2.13.25,3.02.74c.88.49,1.6,1.07,2.16,1.73l-1.83,2.44c-.45-.48-.93-.87-1.47-1.17s-1.13-.44-1.8-.44c-.89,0-1.69.26-2.4.79-.71.53-1.26,1.28-1.66,2.27s-.6,2.17-.6,3.56.19,2.6.56,3.59.91,1.76,1.6,2.3c.69.54,1.5.81,2.42.81.76,0,1.44-.18,2.04-.53.6-.35,1.12-.81,1.59-1.36l1.88,2.39c-.73.93-1.57,1.64-2.5,2.11s-1.99.71-3.15.71Z"/>
      <path class="cls-3" d="M238.4,202.12v-19.23h10.82v3.22h-7.29v4.44h6.17v3.22h-6.17v5.14h7.56v3.22h-11.09Z"/>
      <path class="cls-3" d="M208.2,226.58c-1.11,0-2.15-.21-3.12-.64s-1.82-1.06-2.56-1.91c-.74-.85-1.32-1.89-1.74-3.11-.42-1.23-.63-2.64-.63-4.23s.21-3.01.64-4.24c.43-1.24,1.02-2.29,1.78-3.15s1.63-1.52,2.62-1.97c.99-.45,2.05-.67,3.16-.67s2.13.25,3.02.74c.88.49,1.6,1.07,2.16,1.73l-1.83,2.44c-.45-.48-.93-.87-1.47-1.17s-1.13-.44-1.8-.44c-.89,0-1.69.26-2.4.79-.71.53-1.26,1.28-1.66,2.27s-.6,2.17-.6,3.56.19,2.6.56,3.59.91,1.76,1.6,2.3c.69.54,1.5.81,2.42.81.76,0,1.44-.18,2.04-.53.6-.35,1.12-.81,1.59-1.36l1.88,2.39c-.73.93-1.57,1.64-2.5,2.11s-1.99.71-3.15.71Z"/>
      <path class="cls-3" d="M216.66,226.22v-19.23h3.53v7.6h6.67v-7.6h3.5v19.23h-3.5v-8.3h-6.67v8.3h-3.53Z"/>
      <path class="cls-3" d="M241.71,226.58c-1.56,0-2.93-.4-4.11-1.21-1.18-.8-2.11-1.96-2.78-3.46-.67-1.5-1-3.3-1-5.4s.33-3.85,1-5.32c.67-1.47,1.59-2.59,2.78-3.37s2.55-1.17,4.11-1.17,2.95.39,4.12,1.18c1.18.79,2.1,1.91,2.77,3.37s1,3.23,1,5.31-.33,3.89-1,5.4c-.67,1.51-1.59,2.66-2.77,3.46-1.18.81-2.55,1.21-4.12,1.21ZM241.71,223.26c.87,0,1.63-.28,2.28-.83s1.14-1.34,1.49-2.35c.35-1.01.52-2.2.52-3.57s-.18-2.54-.52-3.52c-.35-.98-.85-1.73-1.49-2.26s-1.4-.79-2.28-.79-1.63.26-2.28.79c-.64.53-1.14,1.28-1.48,2.26-.34.98-.51,2.15-.51,3.52s.17,2.56.51,3.57c.34,1.01.83,1.8,1.48,2.35.64.55,1.4.83,2.28.83Z"/>
      <path class="cls-2" d="M128.17,250.31v-19.23h3.53v7.6h6.67v-7.6h3.5v19.23h-3.5v-8.3h-6.67v8.3h-3.53Z"/>
      <path class="cls-2" d="M153.22,250.68c-1.56,0-2.93-.4-4.11-1.21-1.18-.8-2.11-1.96-2.78-3.46-.67-1.5-1-3.3-1-5.4s.33-3.85,1-5.32c.67-1.47,1.59-2.59,2.78-3.37s2.55-1.17,4.11-1.17,2.95.39,4.12,1.18c1.18.79,2.1,1.91,2.77,3.37s1,3.23,1,5.31-.33,3.89-1,5.4c-.67,1.51-1.59,2.66-2.77,3.46-1.18.81-2.55,1.21-4.12,1.21ZM153.22,247.35c.87,0,1.63-.28,2.28-.83s1.14-1.34,1.49-2.35c.35-1.01.52-2.2.52-3.57s-.18-2.54-.52-3.52c-.35-.98-.85-1.73-1.49-2.26s-1.4-.79-2.28-.79-1.63.26-2.28.79c-.64.53-1.14,1.28-1.48,2.26-.34.98-.51,2.15-.51,3.52s.17,2.56.51,3.57c.34,1.01.83,1.8,1.48,2.35.64.55,1.4.83,2.28.83Z"/>
      <path class="cls-2" d="M164.57,250.31v-19.23h3.53v16.01h7.18v3.22h-10.7Z"/>
      <path class="cls-2" d="M178.35,250.31v-19.23h4.84c1.81,0,3.36.35,4.66,1.04s2.3,1.74,3,3.14c.71,1.4,1.06,3.18,1.06,5.34s-.35,3.96-1.05,5.4c-.7,1.44-1.68,2.51-2.96,3.23-1.27.72-2.78,1.08-4.53,1.08h-5.03ZM181.88,247.2h1.07c1.11,0,2.07-.22,2.87-.66.8-.44,1.42-1.15,1.85-2.13.43-.98.64-2.24.64-3.8s-.21-2.81-.64-3.75c-.43-.94-1.05-1.63-1.85-2.05-.8-.42-1.76-.64-2.87-.64h-1.07v13.03Z"/>
      <path class="cls-2" d="M195.37,250.31v-19.23h3.53v19.23h-3.53Z"/>
      <path class="cls-2" d="M203.24,250.31v-19.23h3.6l5.13,10.25,1.79,4.15h.12c-.1-1-.2-2.1-.31-3.3-.11-1.19-.17-2.33-.17-3.42v-7.68h3.34v19.23h-3.6l-5.08-10.27-1.79-4.13h-.12c.08,1.04.17,2.14.29,3.3s.17,2.29.17,3.4v7.71h-3.36Z"/>
      <path class="cls-2" d="M228.67,250.68c-1.59,0-3.02-.38-4.3-1.14-1.28-.76-2.29-1.88-3.04-3.35-.75-1.47-1.12-3.27-1.12-5.4,0-1.59.22-3.01.66-4.24.44-1.24,1.04-2.29,1.82-3.15.78-.87,1.68-1.52,2.69-1.97s2.11-.67,3.29-.67c1.27,0,2.36.26,3.25.77.9.51,1.63,1.08,2.2,1.7l-1.88,2.44c-.45-.45-.93-.83-1.47-1.14-.53-.31-1.2-.47-1.99-.47-.99,0-1.85.26-2.6.79-.75.53-1.33,1.28-1.74,2.27s-.62,2.17-.62,3.56.19,2.6.58,3.59c.39.99.97,1.76,1.75,2.3.78.54,1.74.81,2.89.81.43,0,.84-.06,1.24-.19.4-.13.72-.31.95-.53v-3.79h-3.12v-3.14h6.29v8.67c-.6.64-1.41,1.19-2.41,1.64-1,.45-2.11.67-3.34.67Z"/>
      <path class="cls-2" d="M243.45,250.68c-1.18,0-2.33-.24-3.46-.73-1.13-.48-2.12-1.18-2.98-2.08l2.03-2.65c.62.64,1.33,1.15,2.13,1.54.8.39,1.59.58,2.35.58.92,0,1.62-.2,2.1-.6.48-.4.72-.93.72-1.61,0-.48-.12-.87-.35-1.16s-.54-.54-.94-.77c-.4-.22-.86-.45-1.38-.67l-2.34-1.12c-.59-.26-1.16-.61-1.7-1.05-.55-.44-1-1-1.36-1.67-.36-.68-.54-1.48-.54-2.41,0-1.06.26-2,.79-2.83.52-.83,1.25-1.49,2.17-1.98.92-.49,1.97-.74,3.15-.74,1.05,0,2.06.22,3.03.65.97.43,1.81,1.05,2.53,1.84l-1.79,2.39c-.56-.5-1.14-.89-1.74-1.17-.6-.28-1.28-.42-2.03-.42s-1.37.18-1.82.53c-.45.35-.68.85-.68,1.49,0,.45.13.82.38,1.12.25.29.59.55,1,.77s.87.44,1.36.66l2.31,1.01c.72.31,1.34.7,1.87,1.17.53.47.95,1.03,1.24,1.69.29.66.44,1.45.44,2.39,0,1.04-.26,2-.77,2.88-.52.88-1.26,1.59-2.22,2.13-.96.54-2.13.81-3.49.81Z"/>
    </g>
  </g>
</svg>