<?xml version="1.0" encoding="UTF-8"?>
<svg id="Layer_1" data-name="Layer 1" xmlns="http://www.w3.org/2000/svg" viewBox="0 0 450 450">
  <defs>
    <style>
      .cls-1 {
        fill: #000;
        stroke-width: 0px;
      }

      .cls-2 {
        fill: gray;
      }

      .cls-3 {
        font-family: BIZUDPGothic-Bold, 'BIZ UDPGothic';
        font-size: 35px;
        font-weight: 700;
      }

      .cls-4 {
        fill: #fff;
      }
    </style>
  </defs>
  <polygon class="cls-1" points="450 150 450 450 150 450 150 300 300 300 300 150 450 150"/>
  <path class="cls-1" d="M325.63,14.21h19.48v50.39h59.77V14.21h19.48v121.51h-19.48v-54.79h-59.77v54.79h-19.48V14.21Z"/>
  <path class="cls-1" d="M113.55,436.3l-3.44-13.62c-3.08,4.35-7.01,7.84-11.79,10.47-6.49,3.52-13.65,5.27-21.46,5.27-16.11,0-29.74-5.49-40.87-16.48-11.67-11.57-17.5-27.07-17.5-46.51,0-17.04,4.69-31.35,14.06-42.92,11.43-14.11,26.54-21.17,45.34-21.17,9.77,0,18.55,1.61,26.37,4.83,5.96,2.44,12.16,6.27,18.6,11.5l-10.91,13.55c-5.81-4.83-10.96-8.2-15.45-10.11-5.23-2.2-11.21-3.3-17.94-3.3-11.43,0-20.8,4.37-28.12,13.11-7.18,8.55-10.77,20.14-10.77,34.79,0,13.77,3.32,24.83,9.96,33.18,6.84,8.59,16.19,12.89,28.05,12.89,8.3,0,15.53-1.98,21.68-5.93,4.88-3.12,8.23-6.86,10.03-11.21v-15.16h-32.52v-15.45h50.68v62.26h-13.99Z"/>
  <path class="cls-1" d="M279.64,272.09c-12.26,10.99-27.66,16.48-46.22,16.48s-34.01-6.52-45.48-19.56c-9.77-11.08-14.65-25.61-14.65-43.58s4.74-31.49,14.21-43.21c11.28-13.92,26.17-20.87,44.68-20.87,10.55,0,19.95,2,28.2,6.01,5.52,2.69,11.28,6.79,17.29,12.3l-11.65,13.4c-8.74-10.16-19.73-15.23-32.96-15.23-11.57,0-20.92,4.39-28.05,13.18-7.03,8.64-10.55,20.21-10.55,34.72,0,11.82,2.78,21.75,8.35,29.81,7.47,10.74,17.77,16.11,30.91,16.11,14.36,0,26.37-5.1,36.04-15.31l9.89,15.75Z"/>
  <text class="cls-3" transform="translate(313.16 375.8)"><tspan class="cls-4"><tspan x="0" y="0">GRACE</tspan></tspan><tspan class="cls-4"><tspan x="48.3" y="35">CHO</tspan></tspan><tspan class="cls-2"><tspan x="-74.89" y="70">HOLDINGS</tspan></tspan></text>
</svg>