<?xml version="1.0" encoding="UTF-8"?>
<svg id="Layer_1" data-name="Layer 1" xmlns="http://www.w3.org/2000/svg" viewBox="0 0 260.84 263.42">
  <defs>
    <style>
      .cls-1 {
        fill: #000;
      }

      .cls-1, .cls-2, .cls-3 {
        stroke-width: 0px;
      }

      .cls-2 {
        fill: gray;
      }

      .cls-3 {
        fill: #fff;
      }
    </style>
  </defs>
  <polygon class="cls-1" points="260.84 82.08 260.84 263.42 79.5 263.42 79.5 172.75 170.17 172.75 170.17 82.08 260.84 82.08"/>
  <path class="cls-1" d="M185.66,0h11.78v30.46h36.13V0h11.78v73.45h-11.78v-33.12h-36.13v33.12h-11.78V0Z"/>
  <path class="cls-1" d="M57.47,255.14l-2.08-8.23c-1.86,2.63-4.24,4.74-7.13,6.33-3.93,2.13-8.25,3.19-12.97,3.19-9.74,0-17.97-3.32-24.7-9.96-7.05-7-10.58-16.37-10.58-28.11,0-10.3,2.83-18.95,8.5-25.94,6.91-8.53,16.04-12.79,27.4-12.79,5.9,0,11.22.97,15.94,2.92,3.6,1.48,7.35,3.79,11.25,6.95l-6.6,8.19c-3.51-2.92-6.63-4.96-9.34-6.11-3.16-1.33-6.77-1.99-10.85-1.99-6.91,0-12.57,2.64-17,7.92-4.34,5.17-6.51,12.18-6.51,21.03,0,8.32,2.01,15.01,6.02,20.06,4.13,5.2,9.78,7.79,16.96,7.79,5.02,0,9.39-1.2,13.1-3.59,2.95-1.89,4.97-4.15,6.07-6.77v-9.16h-19.66v-9.34h30.64v37.63h-8.46Z"/>
  <path class="cls-1" d="M157.86,155.88c-7.41,6.64-16.72,9.96-27.94,9.96s-20.56-3.94-27.49-11.82c-5.9-6.7-8.85-15.48-8.85-26.34s2.86-19.04,8.59-26.12c6.82-8.41,15.82-12.62,27.01-12.62,6.38,0,12.06,1.21,17.05,3.63,3.33,1.62,6.82,4.1,10.45,7.44l-7.04,8.1c-5.28-6.14-11.92-9.21-19.92-9.21-7,0-12.65,2.66-16.96,7.97-4.25,5.22-6.38,12.22-6.38,20.99,0,7.14,1.68,13.15,5.05,18.02,4.52,6.49,10.74,9.74,18.68,9.74,8.68,0,15.94-3.08,21.78-9.25l5.98,9.52Z"/>
  <g>
    <path class="cls-3" d="M182.51,206.56c-1.69,0-3.22-.41-4.58-1.22-1.36-.81-2.44-2-3.24-3.57-.8-1.57-1.19-3.49-1.19-5.76,0-1.7.23-3.21.7-4.52.46-1.32,1.11-2.44,1.94-3.36.83-.92,1.79-1.62,2.87-2.1s2.25-.72,3.5-.72c1.35,0,2.51.27,3.47.82.96.54,1.74,1.15,2.35,1.81l-2.01,2.6c-.47-.48-.99-.89-1.56-1.22-.57-.33-1.27-.5-2.12-.5-1.05,0-1.97.28-2.77.84-.8.56-1.41,1.37-1.85,2.42s-.66,2.31-.66,3.79.21,2.77.62,3.83c.41,1.06,1.04,1.88,1.87,2.45.83.57,1.85.86,3.07.86.46,0,.9-.07,1.32-.21.42-.14.76-.33,1.01-.57v-4.04h-3.33v-3.35h6.7v9.24c-.64.68-1.5,1.26-2.56,1.74-1.07.48-2.25.72-3.55.72Z"/>
    <path class="cls-3" d="M192.64,206.17v-20.5h6.52c1.34,0,2.54.19,3.6.57,1.07.38,1.91,1.02,2.54,1.94s.94,2.15.94,3.72-.31,2.75-.94,3.72-1.47,1.68-2.54,2.13c-1.07.45-2.27.68-3.6.68h-2.77v7.75h-3.76ZM196.4,195.18h2.44c1.22,0,2.15-.28,2.78-.83.63-.55.95-1.37.95-2.46s-.32-1.88-.95-2.31-1.56-.65-2.78-.65h-2.44v6.25ZM202.85,206.17l-4.37-8.8,2.64-2.54,5.94,11.34h-4.21Z"/>
    <path class="cls-3" d="M207.19,206.17l6.02-20.5h4.44l6.02,20.5h-3.96l-2.67-10.68c-.29-1.07-.56-2.18-.83-3.33s-.54-2.27-.83-3.36h-.1c-.24,1.11-.49,2.23-.77,3.38-.28,1.14-.55,2.25-.83,3.32l-2.69,10.68h-3.81ZM210.92,200.91v-3.18h8.94v3.18h-8.94Z"/>
    <path class="cls-3" d="M233.08,206.56c-1.18,0-2.29-.23-3.33-.68s-1.94-1.13-2.73-2.03c-.79-.9-1.41-2.01-1.85-3.32-.45-1.31-.67-2.81-.67-4.51s.23-3.21.69-4.52c.46-1.32,1.09-2.44,1.89-3.36s1.74-1.62,2.79-2.1c1.06-.48,2.18-.72,3.36-.72s2.27.26,3.21.79c.94.53,1.71,1.14,2.3,1.84l-1.95,2.6c-.47-.52-1-.93-1.56-1.24s-1.21-.47-1.92-.47c-.95,0-1.8.28-2.55.84-.75.56-1.34,1.37-1.76,2.42s-.63,2.31-.63,3.79.2,2.77.6,3.83.97,1.88,1.7,2.45c.74.57,1.6.86,2.58.86.81,0,1.54-.19,2.17-.57.63-.38,1.2-.86,1.69-1.45l2.01,2.55c-.78,1-1.67,1.75-2.67,2.25s-2.12.76-3.35.76Z"/>
    <path class="cls-3" d="M242.09,206.17v-20.5h11.53v3.43h-7.77v4.73h6.58v3.43h-6.58v5.48h8.05v3.43h-11.81Z"/>
    <path class="cls-3" d="M209.93,232.25c-1.18,0-2.29-.23-3.33-.68s-1.94-1.13-2.73-2.03c-.79-.9-1.41-2.01-1.85-3.32-.45-1.31-.67-2.81-.67-4.51s.23-3.21.69-4.52c.46-1.32,1.09-2.44,1.89-3.36s1.74-1.62,2.79-2.1c1.06-.48,2.18-.72,3.36-.72s2.27.26,3.21.79c.94.53,1.71,1.14,2.3,1.84l-1.95,2.6c-.47-.52-1-.93-1.56-1.24s-1.21-.47-1.92-.47c-.95,0-1.8.28-2.55.84-.75.56-1.34,1.37-1.76,2.42s-.63,2.31-.63,3.79.2,2.77.6,3.83.97,1.88,1.7,2.45c.74.57,1.6.86,2.58.86.81,0,1.54-.19,2.17-.57.63-.38,1.2-.86,1.69-1.45l2.01,2.55c-.78,1-1.67,1.75-2.67,2.25s-2.12.76-3.35.76Z"/>
    <path class="cls-3" d="M218.94,231.86v-20.5h3.76v8.11h7.11v-8.11h3.73v20.5h-3.73v-8.85h-7.11v8.85h-3.76Z"/>
    <path class="cls-3" d="M245.62,232.25c-1.66,0-3.12-.43-4.38-1.29-1.26-.86-2.25-2.09-2.96-3.69-.71-1.6-1.07-3.52-1.07-5.76s.36-4.1,1.07-5.67c.71-1.57,1.7-2.77,2.96-3.6s2.72-1.24,4.38-1.24,3.14.42,4.39,1.26c1.25.84,2.23,2.04,2.95,3.6s1.07,3.44,1.07,5.66-.36,4.15-1.07,5.76c-.71,1.61-1.69,2.84-2.95,3.69-1.25.86-2.72,1.29-4.39,1.29ZM245.62,228.71c.93,0,1.74-.3,2.42-.89s1.21-1.43,1.59-2.5c.37-1.08.56-2.35.56-3.81s-.19-2.71-.56-3.75c-.37-1.04-.9-1.84-1.59-2.41s-1.49-.84-2.42-.84-1.74.28-2.42.84c-.69.56-1.21,1.37-1.57,2.41-.36,1.04-.55,2.29-.55,3.75s.18,2.73.55,3.81c.36,1.08.89,1.91,1.57,2.5.69.59,1.49.89,2.42.89Z"/>
    <path class="cls-2" d="M124.7,257.56v-20.5h3.76v8.11h7.11v-8.11h3.73v20.5h-3.73v-8.85h-7.11v8.85h-3.76Z"/>
    <path class="cls-2" d="M151.39,257.95c-1.66,0-3.12-.43-4.38-1.29-1.26-.86-2.25-2.09-2.96-3.69-.71-1.6-1.07-3.52-1.07-5.76s.36-4.1,1.07-5.67c.71-1.57,1.7-2.77,2.96-3.6s2.72-1.24,4.38-1.24,3.14.42,4.39,1.26c1.25.84,2.23,2.04,2.95,3.6s1.07,3.44,1.07,5.66-.36,4.15-1.07,5.76c-.71,1.61-1.69,2.84-2.95,3.69-1.25.86-2.72,1.29-4.39,1.29ZM151.39,254.4c.93,0,1.74-.3,2.42-.89s1.21-1.43,1.59-2.5c.37-1.08.56-2.35.56-3.81s-.19-2.71-.56-3.75c-.37-1.04-.9-1.84-1.59-2.41s-1.49-.84-2.42-.84-1.74.28-2.42.84c-.69.56-1.21,1.37-1.57,2.41-.36,1.04-.55,2.29-.55,3.75s.18,2.73.55,3.81c.36,1.08.89,1.91,1.57,2.5.69.59,1.49.89,2.42.89Z"/>
    <path class="cls-2" d="M163.47,257.56v-20.5h3.76v17.07h7.64v3.43h-11.4Z"/>
    <path class="cls-2" d="M178.14,257.56v-20.5h5.15c1.93,0,3.58.37,4.96,1.11s2.45,1.85,3.2,3.35c.75,1.49,1.13,3.39,1.13,5.7s-.37,4.23-1.12,5.76c-.74,1.53-1.79,2.68-3.15,3.45-1.35.77-2.96,1.15-4.82,1.15h-5.36ZM181.9,254.24h1.14c1.18,0,2.2-.24,3.06-.7.85-.47,1.51-1.23,1.97-2.27.46-1.04.69-2.39.69-4.05s-.23-2.99-.69-4c-.46-1.01-1.11-1.73-1.97-2.19-.86-.45-1.87-.68-3.06-.68h-1.14v13.89Z"/>
    <path class="cls-2" d="M196.27,257.56v-20.5h3.76v20.5h-3.76Z"/>
    <path class="cls-2" d="M204.65,257.56v-20.5h3.83l5.46,10.93,1.9,4.43h.13c-.1-1.07-.21-2.24-.33-3.52-.12-1.27-.18-2.49-.18-3.65v-8.19h3.56v20.5h-3.83l-5.41-10.96-1.9-4.4h-.13c.09,1.11.19,2.28.3,3.52s.18,2.44.18,3.62v8.22h-3.58Z"/>
    <path class="cls-2" d="M231.74,257.95c-1.69,0-3.22-.41-4.58-1.22-1.36-.81-2.44-2-3.24-3.57-.8-1.57-1.19-3.49-1.19-5.76,0-1.7.23-3.21.7-4.52.46-1.32,1.11-2.44,1.94-3.36.83-.92,1.79-1.62,2.87-2.1s2.25-.72,3.5-.72c1.35,0,2.51.27,3.47.82.96.54,1.74,1.15,2.35,1.81l-2.01,2.6c-.47-.48-.99-.89-1.56-1.22-.57-.33-1.27-.5-2.12-.5-1.05,0-1.97.28-2.77.84-.8.56-1.41,1.37-1.85,2.42s-.66,2.31-.66,3.79.21,2.77.62,3.83c.41,1.06,1.04,1.88,1.87,2.45.83.57,1.85.86,3.07.86.46,0,.9-.07,1.32-.21.42-.14.76-.33,1.01-.57v-4.04h-3.33v-3.35h6.7v9.24c-.64.68-1.5,1.26-2.56,1.74-1.07.48-2.25.72-3.55.72Z"/>
    <path class="cls-2" d="M247.48,257.95c-1.25,0-2.48-.26-3.68-.78-1.2-.52-2.26-1.25-3.17-2.21l2.16-2.82c.66.68,1.42,1.23,2.27,1.65.85.42,1.69.62,2.5.62.98,0,1.73-.21,2.23-.64.51-.42.76-1,.76-1.71,0-.52-.12-.93-.37-1.23s-.58-.58-1-.82c-.42-.24-.91-.48-1.47-.72l-2.49-1.19c-.63-.28-1.23-.65-1.82-1.12-.58-.47-1.07-1.07-1.45-1.79-.38-.72-.57-1.58-.57-2.57,0-1.13.28-2.13.84-3.02.56-.89,1.33-1.59,2.31-2.12.98-.53,2.1-.79,3.35-.79,1.12,0,2.19.23,3.22.69,1.03.46,1.93,1.12,2.69,1.96l-1.9,2.54c-.59-.53-1.21-.95-1.85-1.24-.64-.29-1.36-.44-2.16-.44s-1.46.19-1.94.57c-.48.38-.72.91-.72,1.59,0,.48.14.88.41,1.19.27.31.63.59,1.07.82s.92.47,1.45.7l2.46,1.08c.76.33,1.43.75,1.99,1.24.57.5,1.01,1.1,1.32,1.8.31.7.47,1.55.47,2.55,0,1.11-.27,2.13-.82,3.07-.55.94-1.34,1.7-2.36,2.27-1.02.57-2.26.86-3.72.86Z"/>
  </g>
</svg>